<?xml version="1.0" encoding="utf-8"?>
<!-- Generator: Adobe Illustrator 16.0.0, SVG Export Plug-In . SVG Version: 6.00 Build 0)  -->
<!DOCTYPE svg PUBLIC "-//W3C//DTD SVG 1.1//EN" "http://www.w3.org/Graphics/SVG/1.1/DTD/svg11.dtd">
<svg version="1.1" id="Layer_1" xmlns="http://www.w3.org/2000/svg" xmlns:xlink="http://www.w3.org/1999/xlink" x="0px" y="0px"
	 width="70.561px" height="30.24px" viewBox="0 0 70.561 30.24" enable-background="new 0 0 70.561 30.24" xml:space="preserve">
<g>
	<defs>
		<rect id="SVGID_1_" width="70.558" height="30.233"/>
	</defs>
	<clipPath id="SVGID_2_">
		<use xlink:href="#SVGID_1_"  overflow="visible"/>
	</clipPath>
	<g clip-path="url(#SVGID_2_)">
		<defs>
			<rect id="SVGID_3_" width="70.561" height="30.24"/>
		</defs>
		<clipPath id="SVGID_4_">
			<use xlink:href="#SVGID_3_"  overflow="visible"/>
		</clipPath>
		<rect clip-path="url(#SVGID_4_)" fill="#E8E9EB" width="70.558" height="30.233"/>
	</g>
</g>
<g>
	<defs>
		<rect id="SVGID_5_" width="70.561" height="30.24"/>
	</defs>
	<clipPath id="SVGID_6_">
		<use xlink:href="#SVGID_5_"  overflow="visible"/>
	</clipPath>
	<rect x="11.781" y="17.672" clip-path="url(#SVGID_6_)" fill="#717F86" width="3.329" height="1.664"/>
	<rect x="16.774" y="17.672" clip-path="url(#SVGID_6_)" fill="#717F86" width="3.327" height="1.664"/>
	<rect x="11.778" y="14.343" clip-path="url(#SVGID_6_)" fill="#717F86" width="8.323" height="1.664"/>
	<rect x="11.781" y="11.015" clip-path="url(#SVGID_6_)" fill="#717F86" width="4.993" height="1.664"/>
	<rect x="18.438" y="11.015" clip-path="url(#SVGID_6_)" fill="#717F86" width="1.664" height="1.664"/>
	<path clip-path="url(#SVGID_6_)" fill="#414041" d="M44.266,11.005c-2.673,0-4.054,1.891-4.054,4.223s1.347,4.222,4.054,4.222
		s4.054-1.89,4.054-4.222S46.938,11.005,44.266,11.005 M46.288,15.234L46.288,15.234c-0.002,1.5-0.507,2.714-2.022,2.714
		c-1.515,0-2.021-1.214-2.022-2.714v-0.007c0.002-1.5,0.508-2.714,2.022-2.714c1.516,0,2.021,1.214,2.022,2.714V15.234z"/>
	<path clip-path="url(#SVGID_6_)" fill="#414041" d="M32.297,19.336V7.662c0,0,1.54-0.219,1.659-0.234
		c0.135-0.019,0.315,0.078,0.315,0.269c0,0.208,0,4.327,0,4.327c0.319-0.304,0.671-0.548,1.055-0.735
		c0.384-0.186,0.834-0.279,1.352-0.279c0.447,0,0.844,0.076,1.189,0.228c0.347,0.152,0.636,0.365,0.867,0.64
		c0.232,0.274,0.408,0.602,0.528,0.983c0.119,0.381,0.18,0.8,0.18,1.259v5.218h-1.974v-5.218c0-0.5-0.116-0.888-0.348-1.163
		c-0.232-0.274-0.58-0.412-1.043-0.412c-0.342,0-0.661,0.077-0.959,0.232c-0.299,0.154-0.581,0.364-0.848,0.631v5.93H32.297"/>
	<path clip-path="url(#SVGID_6_)" fill="#414041" d="M58.649,19.448c-1.358,0-2.209-0.79-2.209-2.266v-4.37h-1.531
		c0,0,0.325-1.125,0.351-1.214c0.026-0.088,0.094-0.183,0.229-0.202s0.95-0.132,0.95-0.132l0.376-2.394c0,0,1.104-0.156,1.28-0.182
		c0.166-0.025,0.315,0.094,0.315,0.275c0,0.18,0,2.301,0,2.301h1.937v1.549H58.41v4.312c0,0.589,0.358,0.814,0.702,0.814
		c0.21,0,0.498-0.112,0.713-0.211c0.132-0.062,0.337-0.017,0.391,0.169c0.047,0.164,0.297,1.034,0.297,1.034
		C60.297,19.069,59.616,19.448,58.649,19.448"/>
	<path clip-path="url(#SVGID_6_)" fill="#414041" d="M53.824,12.838c-0.385-0.125-1.108-0.325-1.796-0.325
		c-0.701,0-1.252,0.242-1.252,0.825c0,0.728,1.188,0.94,2.002,1.237c0.544,0.198,2.002,0.584,2.002,2.154
		c0,1.905-1.582,2.72-3.27,2.72c-1.688,0-2.686-0.627-2.686-0.627s0.262-0.926,0.314-1.108c0.048-0.164,0.238-0.222,0.36-0.175
		c0.435,0.167,1.22,0.4,2.106,0.4c0.897,0,1.332-0.274,1.332-0.859c0-0.777-1.213-1.015-2.015-1.268
		c-0.552-0.175-2.015-0.58-2.015-2.306c0-1.7,1.492-2.497,3.088-2.497c1.35,0,2.012,0.282,2.507,0.534c0,0-0.276,0.961-0.317,1.104
		C54.139,12.816,53.999,12.895,53.824,12.838"/>
	<path clip-path="url(#SVGID_6_)" fill="#414041" d="M31.526,11.29c0-0.184-0.157-0.289-0.307-0.271
		c-0.662,0.075-1.135,0.387-1.44,0.678c-0.601-0.471-1.434-0.695-2.369-0.695c-1.875,0-3.341,0.905-3.341,2.879
		c0,1.133,0.482,1.914,1.248,2.373c-0.568,0.27-0.947,0.84-0.947,1.402c0,0.939,0.742,1.233,0.742,1.233s-1.298,0.63-1.298,1.89
		c0,1.613,1.484,2.266,3.299,2.266c2.615,0,4.414-1.08,4.414-3.062c0-1.221-0.934-1.895-2.969-1.975
		c-1.208-0.048-1.99-0.091-2.184-0.155c-0.256-0.085-0.382-0.29-0.382-0.517c0-0.25,0.205-0.488,0.528-0.651
		c0.282,0.05,0.58,0.075,0.89,0.075c1.877,0,3.341-0.902,3.341-2.879c0-0.479-0.087-0.896-0.244-1.251
		c0.276-0.147,0.615-0.25,1.02-0.25C31.526,12.379,31.526,11.458,31.526,11.29 M26.358,19.347c0,0,0.985,0.037,1.969,0.082
		c1.106,0.052,1.451,0.29,1.451,0.862c0,0.699-0.961,1.38-2.304,1.38c-1.274,0-1.911-0.443-1.911-1.182
		C25.562,20.065,25.786,19.592,26.358,19.347z M27.413,15.381c-0.889,0-1.582-0.472-1.582-1.501s0.694-1.501,1.582-1.501
		s1.581,0.47,1.581,1.501C28.994,14.91,28.302,15.381,27.413,15.381z"/>
</g>
</svg>
