<?xml version="1.0" encoding="utf-8"?>
<!-- Generator: Adobe Illustrator 16.0.0, SVG Export Plug-In . SVG Version: 6.00 Build 0)  -->
<!DOCTYPE svg PUBLIC "-//W3C//DTD SVG 1.1//EN" "http://www.w3.org/Graphics/SVG/1.1/DTD/svg11.dtd">
<svg version="1.1" id="Layer_1" xmlns="http://www.w3.org/2000/svg" xmlns:xlink="http://www.w3.org/1999/xlink" x="0px" y="0px"
	 width="105.333px" height="63px" viewBox="57.578 35.163 105.333 63" enable-background="new 57.578 35.163 105.333 63"
	 xml:space="preserve">
<g>
	<g>
		<path fill="#81C0C6" d="M78.049,97.315c-0.225-0.028-0.435-0.12-0.607-0.267c-0.228-0.196-0.369-0.481-0.389-0.782l-0.299-4.653
			c-0.006-0.096,0.001-0.192,0.022-0.292L72.999,78.37l8.546,6.861l4.337-5.828l0.009,0.008l0.001-0.002l0.215,0.203l5.035,4.808
			l7.271-8.2l-1.552,13.439c0.033,0.09,0.053,0.182,0.061,0.271l0.393,4.647c0.053,0.617-0.41,1.165-1.028,1.217l-18.014,1.523
			C78.198,97.323,78.123,97.323,78.049,97.315z M79.229,94.973l15.745-1.33l-0.205-2.401l-15.694,1.329L79.229,94.973z
			 M78.882,90.325l15.741-1.333l0.943-6.103l-4.187,4.724l-5.222-4.985l-4.31,5.791l-4.922-3.953L78.882,90.325z"/>
	</g>
</g>
<g>
	<g>
		<path fill="#81C0C6" d="M98.047,77.042l-6.889,7.767l-5.237-5.001l-0.001,0.001l-0.002-0.001l-4.323,5.811L73.5,79.118
			l3.558,12.195c-0.025,0.091-0.04,0.184-0.032,0.281l0.298,4.656c0.014,0.229,0.121,0.441,0.296,0.592
			c0.174,0.15,0.401,0.225,0.63,0.205l18.014-1.525c0.471-0.039,0.82-0.453,0.782-0.924l-0.394-4.646
			c-0.008-0.094-0.033-0.178-0.068-0.259L98.047,77.042z M81.799,88.031l4.325-5.812l5.238,5.002l4.612-5.203l-1.116,7.226
			l-16.166,1.368l-2.315-6.934L81.799,88.031z M95.266,93.888l-16.289,1.379l-0.189-2.943l16.23-1.374L95.266,93.888z"/>
	</g>
</g>
<g>
	<g>
		<polygon fill="#81C0C6" points="80.899,80.374 82.679,81.871 83.599,80.78 80.729,78.364 78.297,81.221 79.387,82.142 		"/>
	</g>
</g>
<g>
	<g>
		<circle fill="#81C0C6" cx="98.421" cy="76.36" r="1.303"/>
	</g>
</g>
<g>
	<g>
		<circle fill="#81C0C6" cx="80.681" cy="77.521" r="1.303"/>
	</g>
</g>
<g>
	<g>
		<path fill="#81C0C6" d="M74.438,78.641c-0.082,0.714-0.728,1.227-1.443,1.146c-0.715-0.083-1.228-0.729-1.146-1.443
			c0.082-0.717,0.728-1.23,1.444-1.146C74.008,77.28,74.521,77.925,74.438,78.641z"/>
	</g>
</g>
<g>
	<g>
		<path fill="#81C0C6" d="M95.745,93.957l-0.202-2.857c0.664-0.051,2.578-0.4,3.409-1.392c0.314-0.375,0.437-0.812,0.383-1.371
			c-0.104-1.061-0.514-1.344-0.648-1.439c-0.62-0.432-1.661-0.275-1.905-0.213l-0.731-2.771c0.25-0.064,2.489-0.607,4.272,0.631
			c0.745,0.52,1.671,1.549,1.865,3.513c0.129,1.327-0.233,2.538-1.048,3.507C99.379,93.647,96.112,93.932,95.745,93.957z"/>
	</g>
</g>
<g>
	<path fill="#81C0C6" d="M111.2,59.192c-0.866,1.563-3.287,2.43-5.666,2.293c-3.408-0.178-5.669-3.06-5.113-7.587
		c0.61-4.897,7.457-8.38,9.89-5.044c1.771,2.419-0.567,6.998-4.595,8.858c-0.071,0.029-0.144,0.056-0.216,0.085
		c0.977,2.195,3.056,3.082,4.882,0.756C111.253,57.479,111.934,57.881,111.2,59.192z M105.077,56.305
		c2.459-1.944,3.092-5.963,2.323-7.046c-0.82-1.127-2.181,0.781-2.447,5.244C104.939,55.14,104.973,55.749,105.077,56.305z"/>
	<path fill="#81C0C6" d="M127.723,58.792c-0.943,1.055-2.807,1.842-4.742,1.753c-1.375-0.095-2.252-0.926-2.812-2.24
		c-0.174,0.401-0.373,0.755-0.626,1.038c-0.876,1.001-1.966,1.599-3.413,1.532c-2.916-0.156-4.794-3.18-4.235-7.66
		c0.595-4.702,4.569-6.657,7.026-5.546c-0.026-4.446,0.35-10.015,0.852-10.239c4.01-1.737,5.636-0.165,4.531,3.733
		c-1.71,6.182-1.182,13.533-0.27,15.902c0.345,0.91,1.605,2.062,2.683,0.732C127.881,56.339,129.29,57.068,127.723,58.792z
		 M119.307,54.663c-0.182-1.53-0.252-3.261-0.329-5.042c-0.009-0.195-0.022-0.414-0.032-0.633c-1.5-0.578-2.814,1.744-3.009,4.859
		c-0.213,3.653,1.526,5.488,2.403,4.56C119.034,57.66,119.25,55.398,119.307,54.663z"/>
	<path fill="#81C0C6" d="M130.725,49.46c-0.904,5.745,0.803,10.123,0.229,10.326c-3.789,1.309-4.506-1.022-4.969-9.404
		c-0.092-1.657-0.006-3.642,0.423-3.861C129.525,45.005,131.359,45.466,130.725,49.46z M126.407,43.882
		c-0.903-0.83-0.481-2.026,1.44-3.135c0.971-0.567,2.222-1.37,3.275,0.454C132.718,43.949,128.524,45.892,126.407,43.882z"/>
</g>
<g>
	<path fill="#81C0C6" d="M113.022,77.54c2.83,0.518,4.513,0.347,4.586,0.689c0.705,2.465,0.168,3.734-1.345,3.733
		c-0.685-0.002-1.659-0.175-2.71-0.469c3.729,5.055,4.967,11.255,2.987,13.498c-2.149,2.391-5.983,1.995-7.101-1.399
		c-1.094-3.344-1.038-9.079-1.034-12.91c0-0.414,0.026-0.854,0.026-1.295c-0.707-0.439-1.268-0.902-1.584-1.319
		c-0.707-1.001-0.144-2.001,0.368-2.366c0.049-0.024,0.659,0.221,1.487,0.562c0.346-2.586,1.007-5.342,2.108-7.489
		c1.884-3.658,5.667-5.337,7.57-2.773C120.352,68.665,118.612,75.936,113.022,77.54z M112.549,84.421
		c0.02,3.464,0.187,7.517,0.477,8.493c0.488,1.514,1.78,1.563,2.342,0.564C116.03,92.26,114.863,87.573,112.549,84.421z
		 M117.157,67.49c-0.658-0.953-2.173,1.144-2.882,2.559c-0.857,1.731-1.151,3.196-1.375,6.197
		C117.783,74.934,118.352,69.175,117.157,67.49z"/>
	<path fill="#81C0C6" d="M122.777,81.09c-1.228,5.686,0.231,10.151-0.354,10.322c-3.856,1.093-4.441-1.275-4.429-9.67
		c0-1.66,0.198-3.635,0.64-3.83C121.83,76.574,123.635,77.136,122.777,81.09z M118.781,75.276c-0.854-0.879-0.364-2.051,1.613-3.049
		c1.002-0.511,2.296-1.241,3.246,0.64C125.075,75.7,120.78,77.403,118.781,75.276z"/>
	<path fill="#81C0C6" d="M140.311,90.409c-1.026,1-3.053,1.609-4.932,1.266c-1.221-0.198-2.389-1.226-2.802-2.544
		c-0.438-1.464-1.097-2.563-2.414-2.565c-1.05-0.002-1.587,0.414-1.66,1.195c0.071,1.464,0.142,1.977,0.167,2.855
		c0.023,0.707-1.76,1.706-3.539,0.483c-0.588-0.39-0.676-7.103-0.668-13.325c-0.316-0.074-0.609-0.196-0.877-0.344
		c-1.709-0.979-1.389-2.344-1.023-2.906c0.27-0.437,0.293,0.808,1.902,1.664c0-0.172,0-0.343,0.001-0.515
		c0.007-6.587,2.138-11.637,5.484-13.512c3.173-1.752,6.561,1.912,4.628,7.522c-1.422,4.074-3.768,6.56-6.088,7.63
		c-0.051,1.61-0.078,3.294-0.08,5.005c0,0.877,0.023,1.658,0.023,2.342c0.463-0.78,1.32-2.072,2.713-4.243
		c0.93-1.463,1.639-3.123,2.25-3.171c3.807-0.359,5.342,1.889,2.387,4.665c-0.832,0.756-1.663,1.413-2.494,1.974
		c2.027,0.515,2.951,1.957,3.485,4.348c0.364,1.637,1.683,2.248,2.71,1.102C140.728,87.969,141.947,88.776,140.311,90.409z
		 M128.615,74.825c1.686-1.607,3.129-4.121,3.594-5.901c0.931-3.513-0.092-5.272-1.582-3.687
		C129.455,66.479,128.865,70.14,128.615,74.825z"/>
	<path fill="#81C0C6" d="M154.073,90.426c-1.002,1-2.492,1.607-4.369,1.264c-1.465-0.246-2.537-0.979-3.195-2.297
		c-0.196,0.365-0.441,0.705-0.783,1.046c-2.76,2.78-7.614,1.431-7.097-2.204c0.491-3.342,4.396-4.242,7.13-4.726
		c0.103-3.075,0.398-4.32-0.944-4.612c-1.099-0.246-2.198,0.215-2.37,0.947c-0.244,0.951,1.049,0.733,1.172,0.979
		c0.559,1.244-0.688,3.537-2.933,2.827c-1.781-0.538-1.948-2.661-0.069-4.589c1.906-1.949,9.033-2.65,9.64,0.891
		c0.412,2.418-0.544,6.076,0.284,8.42c0.315,0.953,1.438,2.271,2.586,0.98C154.368,87.985,155.736,88.793,154.073,90.426z
		 M145.756,85.754c-0.023-0.219-0.023-0.439-0.023-0.659c0-0.169,0-0.342,0-0.512c-1.684,0.632-3.076,1.655-3.25,3.047
		c-0.294,2.731,1.193,2.661,2.099,1.783c0.878-0.829,1.149-2.292,1.151-3.512C145.733,85.852,145.733,85.804,145.756,85.754z"/>
</g>
<g>
	<path fill="#81C0C6" d="M159.486,63.44c-1.142,0.838-2.704,1.216-4.509,0.595c-2.512-0.852-3.562-3.036-2.938-7.138
		c0.635-4.149,0.136-4.769-0.754-4.263c-0.539,0.289-1.535,1.469-2.129,2.786c-0.586,2.7-0.825,5.083-0.591,6.624
		c0.116,0.685-1.999,1.448-3.518-0.092c-0.595-0.634-0.038-5.733,0.883-10.481c0.718-3.717,2.768-11.649,3.383-11.802
		c4.258-1.053,5.442,0.731,3.724,4.395c-1.105,2.398-2.098,5.011-2.882,7.559c0.823-0.863,1.655-1.475,2.267-1.752
		c3.535-1.485,6.332-0.07,5.008,3.75c-0.746,2.133-1.451,5.778-1.195,7.349c0.269,1.793,1.402,2.288,2.617,1.288
		C160.291,61.07,161.371,62.075,159.486,63.44z"/>
</g>
<g>
	<path fill="#81C0C6" d="M136.92,70.191c-0.385-0.763,0.438-4.389,9.617-4.222c7.912,0.129,11.843,1.795,14.109,4.701
		c1.561,1.998,1.422,5.36-0.11,6.779c-0.13,0.135-1.036-1.518-2.212-2.678c-1.568-1.572-5.309-4.722-11.87-5.138
		C138.274,69.126,136.973,70.308,136.92,70.191z"/>
</g>
<g>
	<path fill="#81C0C6" d="M136.6,50.796c-0.027,2.957,7.164,1.977,7.127,6.244c-0.027,2.876-3.738,5.063-7.158,4.698
		c-2.152-0.234-3.652-1.585-4-2.898c-0.635-2.374,3.951-3.537,3.622-1.091c-0.229,1.669,0.481,2.706,1.325,2.794
		c1.669,0.188,2.986-0.334,3.005-2.461c0.034-4.039-7.157-1.348-7.114-6.243c0.019-2.18,3.279-4.692,6.553-4.329
		c1.389,0.146,3,0.855,3.529,1.81c1.579,2.823-2.582,2.986-2.688,1.327c-0.071-1.245-0.852-1.854-1.775-1.956
		C137.502,48.531,136.611,49.365,136.6,50.796z"/>
</g>
<g>
	<path fill="#81C0C6" d="M98.413,51.233c2.292,8.389-5.111,12.978-7.452,12.793c-1.376-0.089-2.652-0.749-3.478-1.933
		c-1.538,1.637-3.368,2.661-4.818,2.577c-1.891-0.072-3.549-1.265-4.208-3.442c-1.317-4.353-0.718-9.882-0.515-10.095
		c3.052-2.318,4.995-1.245,4.575,2.803c-0.265,2.59-0.23,4.913,0.034,6.117c0.425,1.999,1.324,3.177,2.058,2.532
		c0.667-0.541,1.358-1.745,1.856-3.204c-0.858-3.801-0.598-8.007-0.104-8.265c2.631-1.428,3.901-0.524,4.029,1.449
		c0.439,1.875,0.218,3.752-0.409,5.442c0.039,0.51,0.077,0.997,0.186,1.453c0.402,2.025,2.004,3.101,2.763,2.479
		c0.92-0.757,2.667-3.169,2.37-6.989c-0.289-3.723-2.47-4.704-1.106-5.422C96.05,48.552,97.903,49.387,98.413,51.233z"/>
</g>
<g>
	<path fill="#81C0C6" d="M109.976,67.172c0.161,0.89-2.22-0.477-7.439,1.842c-11.282,4.985-22.989,4.279-30.621-2.512
		c-2.061,1.568-4.56,2.663-6.768,3.187c-5.224,1.24-8.198-3.472-5.243-6.657c2.099-2.254,7.257-3.027,10.975-1.527
		c0.035-0.484,0.018-0.983-0.101-1.48c-1.206-5.082-8.403-3.172-9.875-9.37c-0.868-3.656,2.919-7.039,7.696-7.095
		c2.977-0.03,5.638,1.245,6.429,2.888c1.532,3.073-0.975,5.399-3.385,4.44c-0.329-0.122-0.753-5.39-3.533-5.583
		c-3.052-0.179-4.729,1.524-4.273,3.448c1.111,4.677,10.579,1.877,12.186,8.645c0.597,2.517-0.146,4.774-1.582,6.647
		c8.253,6.767,16.097,4.204,27.721-1.14C106.689,60.829,109.523,64.319,109.976,67.172z M65.552,67.06
		c1.639-0.389,3.178-1.407,4.189-2.75c-3.412-3.379-7.141-1.867-8.538-0.356C59.242,66.049,61.539,68.012,65.552,67.06z"/>
</g>
<g>
	<g>
		<polygon fill="#81C0C6" points="90.946,79.47 92.724,80.967 93.646,79.875 90.775,77.458 88.344,80.318 89.434,81.238 		"/>
	</g>
</g>
<g>
	<g>
		<circle fill="#81C0C6" cx="90.728" cy="76.615" r="1.304"/>
	</g>
</g>
<g>
	<g>
		<circle fill="#81C0C6" cx="85.858" cy="78.71" r="1.302"/>
	</g>
</g>
</svg>
